<?xml version="1.0" encoding="UTF-8" standalone="no"?>
<!-- Created with Inkscape (http://www.inkscape.org/) -->

<svg
   xmlns:dc="http://purl.org/dc/elements/1.1/"
   xmlns:cc="http://creativecommons.org/ns#"
   xmlns:rdf="http://www.w3.org/1999/02/22-rdf-syntax-ns#"
   xmlns:svg="http://www.w3.org/2000/svg"
   xmlns="http://www.w3.org/2000/svg"
   xmlns:sodipodi="http://sodipodi.sourceforge.net/DTD/sodipodi-0.dtd"
   xmlns:inkscape="http://www.inkscape.org/namespaces/inkscape"
   width="30.85393mm"
   height="30.853928mm"
   viewBox="0 0 109.32494 109.32494"
   id="svg4684"
   version="1.1"
   inkscape:version="0.91 r13725"
   sodipodi:docname="exit-.svg">
  <defs
     id="defs4686" />
  <sodipodi:namedview
     id="base"
     pagecolor="#ffffff"
     bordercolor="#666666"
     borderopacity="1.0"
     inkscape:pageopacity="0.0"
     inkscape:pageshadow="2"
     inkscape:zoom="3.959798"
     inkscape:cx="-72.123147"
     inkscape:cy="13.106482"
     inkscape:document-units="px"
     inkscape:current-layer="layer1"
     showgrid="false"
     fit-margin-top="0"
     fit-margin-left="0"
     fit-margin-right="0"
     fit-margin-bottom="0"
     inkscape:window-width="1855"
     inkscape:window-height="1056"
     inkscape:window-x="65"
     inkscape:window-y="24"
     inkscape:window-maximized="1" />
  <metadata
     id="metadata4689">
    <rdf:RDF>
      <cc:Work
         rdf:about="">
        <dc:format>image/svg+xml</dc:format>
        <dc:type
           rdf:resource="http://purl.org/dc/dcmitype/StillImage" />
        <dc:title></dc:title>
      </cc:Work>
    </rdf:RDF>
  </metadata>
  <g
     inkscape:label="Calque 1"
     inkscape:groupmode="layer"
     id="layer1"
     transform="translate(-51.359999,-481.95427)">
    <rect
       style="opacity:1;fill:none;fill-opacity:1;fill-rule:nonzero;stroke:#dc2f2f;stroke-width:2.98977637;stroke-linecap:round;stroke-miterlimit:4;stroke-dasharray:none;stroke-dashoffset:0;stroke-opacity:1"
       id="rect5322"
       width="59.171692"
       height="100.22554"
       x="55.629494"
       y="483.88165" />
    <path
       style="opacity:1;fill:#333333;fill-opacity:1;fill-rule:nonzero;stroke:none;stroke-width:3;stroke-linecap:round;stroke-miterlimit:4;stroke-dasharray:none;stroke-dashoffset:0;stroke-opacity:1"
       d="m 118.29019,512.77565 c -3.48203,-1.2e-4 -6.30481,2.82265 -6.30469,6.30468 -1.2e-4,3.48203 2.82266,6.3048 6.30469,6.30469 3.48203,1.2e-4 6.3048,-2.82266 6.30468,-6.30469 1.2e-4,-3.48203 -2.82266,-6.3048 -6.30468,-6.30468 z m -5.63086,14.08007 9.74804,23.03516 0.15625,0 -13.20508,21.78516 8.35157,0 12.01786,-17.60352 1.32589,16.92578 c 0.30547,1.44891 0.5453,1.75966 1.48772,2.36579 1.06865,0.23292 1.45814,0.26985 2.63337,0.31195 l 16.75978,-0.15635 c 1.30656,5e-5 0.32627,1.44727 0.89611,2.07406 1.19678,1.31639 3.27794,0.513 3.74702,-1.80537 0.17946,-6.15538 -0.5557,-7.09945 -3.97349,-6.96541 l -14.48411,-0.46721 -0.60634,-12.60097 c -0.12458,-2.58907 0.22484,-4.60625 -1.06767,-6.99101 l -5.52911,-13.30059 7.47265,0 5.62361,9.46093 c 1.47132,2.5484 2.42189,1.78907 4.351,1.78907 1.92911,0 2.29945,-2.05317 0.82813,-4.60157 l -5,-8.65625 c -1.23983,-1.82848 -2.21255,-3.30801 -3.81724,-4.10825 -0.54879,-0.23057 -1.34788,-0.49136 -2.31948,-0.49136 l -9.93555,0 z"
       id="path5303"
       inkscape:connector-curvature="0"
       sodipodi:nodetypes="cccccccccccccccscccsccccscccccc" />
    <rect
       style="opacity:1;fill:#d6d6d6;fill-opacity:1;fill-rule:nonzero;stroke:#000000;stroke-width:5.00954049;stroke-linecap:round;stroke-miterlimit:4;stroke-dasharray:none;stroke-dashoffset:0;stroke-opacity:1"
       id="rect5232"
       width="60.587696"
       height="99.285721"
       x="56.884834"
       y="479.37576"
       transform="matrix(0.9961947,0.08715574,0,1,0,0)" />
    <path
       style="fill:none;fill-rule:evenodd;stroke:#000000;stroke-width:3;stroke-linecap:round;stroke-linejoin:miter;stroke-miterlimit:4;stroke-dasharray:none;stroke-opacity:1"
       d="m 106.34235,536.39552 0.0969,2.42612"
       id="path5234"
       inkscape:connector-curvature="0"
       sodipodi:nodetypes="cc" />
    <path
       style="fill:none;fill-rule:evenodd;stroke:#000000;stroke-width:4;stroke-linecap:round;stroke-linejoin:miter;stroke-miterlimit:4;stroke-dasharray:none;stroke-opacity:1"
       d="m 98.496379,538.85154 8.035711,0.70304"
       id="path5236"
       inkscape:connector-curvature="0" />
    <path
       style="opacity:0.81400003;fill:#d40000;fill-opacity:1;fill-rule:nonzero;stroke:none;stroke-width:4;stroke-linecap:round;stroke-miterlimit:4;stroke-dasharray:none;stroke-dashoffset:0;stroke-opacity:0.44927596"
       d="M 9.9726562 16.537109 L 9.8222656 20.386719 L 9.8222656 36.289062 L 59.822266 40.714844 L 59.822266 20.949219 L 9.9726562 16.537109 z "
       transform="translate(51.359999,481.95427)"
       id="rect5363" />
    <g
       transform="matrix(1.3306749,0.11641896,0,1.3306749,-16.539025,-177.54589)"
       style="font-style:normal;font-variant:normal;font-weight:normal;font-stretch:normal;font-size:17.5px;line-height:125%;font-family:Abel;-inkscape-font-specification:'Abel, Normal';text-align:center;letter-spacing:0px;word-spacing:0px;writing-mode:lr-tb;text-anchor:middle;fill:#ffffff;fill-opacity:1;stroke:none;stroke-width:1px;stroke-linecap:butt;stroke-linejoin:miter;stroke-opacity:1"
       id="flowRoot5238">
      <path
         d="m 66.972891,507.91721 q 0.06,-0.46 -0.04,-0.88 -0.1,-0.42 -0.34,-0.74 -0.22,-0.32 -0.58,-0.5 -0.34,-0.2 -0.8,-0.2 -0.42,0 -0.84,0.18 -0.4,0.18 -0.74,0.58 -0.34,0.38 -0.56,1 -0.2,0.6 -0.2,1.46 0,1.74 0.78,2.7 0.78,0.94 2.04,0.94 0.7,0 1.36,-0.16 0.68,-0.18 1.56,-0.58 l 0.7,1.86 q -1.08,0.52 -2.04,0.72 -0.94,0.22 -1.88,0.22 -1.38,0 -2.38,-0.5 -0.98,-0.5 -1.64,-1.28 -0.64,-0.8 -0.96,-1.8 -0.3,-1 -0.3,-2.02 0,-1.24 0.4,-2.22 0.42,-0.98 1.12,-1.64 0.72,-0.68 1.68,-1.04 0.96,-0.36 2.04,-0.36 1.1,0 2.02,0.44 0.92,0.44 1.48,1.22 0.56,0.78 0.68,1.88 0.14,1.08 -0.3,2.36 l -5.6,0 q 0.22,-0.7 0.62,-1.16 0.42,-0.48 0.94,-0.48 l 1.78,0 z"
         style="font-style:normal;font-variant:normal;font-weight:bold;font-stretch:normal;font-size:20px;line-height:125%;font-family:'Expletus Sans';-inkscape-font-specification:'Expletus Sans, Bold';text-align:center;writing-mode:lr-tb;text-anchor:middle;fill:#ffffff"
         id="path4180" />
      <path
         d="m 70.721953,503.91721 3.18,0 1.56,2.9 0.12,0.42 0.16,-0.42 1.58,-2.9 3.04,0 -3.42,5.22 3.62,5.12 -3.12,0 q -0.76,-1.26 -1.58,-2.5 -0.8,-1.24 -1.64,-2.5 l -3.5,-5.34 z m 2.84,10.34 -3.02,0 3.08,-4.4 q 0.2,0.24 0.4,0.58 0.22,0.34 0.34,0.76 0.14,0.4 0.14,0.84 0,0.44 -0.2,0.86 l -0.74,1.36 z"
         style="font-style:normal;font-variant:normal;font-weight:bold;font-stretch:normal;font-size:20px;line-height:125%;font-family:'Expletus Sans';-inkscape-font-specification:'Expletus Sans, Bold';text-align:center;writing-mode:lr-tb;text-anchor:middle;fill:#ffffff"
         id="path4182" />
      <path
         d="m 82.175391,514.25721 0,-10.34 2.8,0 0,10.34 -2.8,0 z m -0.24,-13.34 q 0,-0.7 0.46,-1.18 0.48,-0.5 1.18,-0.5 0.7,0 1.16,0.5 0.48,0.48 0.48,1.18 0,0.7 -0.48,1.18 -0.46,0.46 -1.16,0.46 -0.7,0 -1.18,-0.46 -0.46,-0.48 -0.46,-1.18 z"
         style="font-style:normal;font-variant:normal;font-weight:bold;font-stretch:normal;font-size:20px;line-height:125%;font-family:'Expletus Sans';-inkscape-font-specification:'Expletus Sans, Bold';text-align:center;writing-mode:lr-tb;text-anchor:middle;fill:#ffffff"
         id="path4184" />
      <path
         d="m 88.441328,505.89721 -1.66,0 0,-1.58 1.66,-0.4 0,-2.46 2.64,-0.86 0,9.7 q 0,1.02 0.42,1.6 0.44,0.56 1.14,0.56 0.28,0 0.64,-0.06 0.38,-0.06 0.9,-0.24 l 0.58,1.82 q -0.76,0.26 -1.34,0.4 -0.56,0.14 -1.06,0.14 -1.92,0 -2.92,-1.08 -1,-1.08 -1,-3.14 l 0,-4.4 z m 5.32,0 q -0.44,0 -0.78,-0.18 -0.32,-0.2 -0.56,-0.48 -0.24,-0.28 -0.4,-0.62 -0.16,-0.36 -0.26,-0.7 l 2.9,0 0,1.98 -0.9,0 z"
         style="font-style:normal;font-variant:normal;font-weight:bold;font-stretch:normal;font-size:20px;line-height:125%;font-family:'Expletus Sans';-inkscape-font-specification:'Expletus Sans, Bold';text-align:center;writing-mode:lr-tb;text-anchor:middle;fill:#ffffff"
         id="path4186" />
    </g>
    <circle
       style="opacity:1;fill:#dc2f2f;fill-opacity:1;fill-rule:nonzero;stroke:none;stroke-width:4;stroke-linecap:round;stroke-miterlimit:4;stroke-dasharray:none;stroke-dashoffset:0;stroke-opacity:0.44927596"
       id="path5373"
       cx="94.947662"
       cy="497.59326"
       r="3.2078772" />
  </g>
</svg>
