<?xml version="1.0" encoding="UTF-8" standalone="no"?>
<!-- Created with Inkscape (http://www.inkscape.org/) -->

<svg
   xmlns:dc="http://purl.org/dc/elements/1.1/"
   xmlns:cc="http://creativecommons.org/ns#"
   xmlns:rdf="http://www.w3.org/1999/02/22-rdf-syntax-ns#"
   xmlns:svg="http://www.w3.org/2000/svg"
   xmlns="http://www.w3.org/2000/svg"
   xmlns:sodipodi="http://sodipodi.sourceforge.net/DTD/sodipodi-0.dtd"
   xmlns:inkscape="http://www.inkscape.org/namespaces/inkscape"
   width="189.91539mm"
   height="163.76076mm"
   viewBox="0 0 672.92855 580.25465"
   id="svg19587"
   version="1.1"
   inkscape:version="0.91 r13725"
   sodipodi:docname="enveloppe.svg">
  <defs
     id="defs19589" />
  <sodipodi:namedview
     id="base"
     pagecolor="#ffffff"
     bordercolor="#666666"
     borderopacity="1.0"
     inkscape:pageopacity="0.0"
     inkscape:pageshadow="2"
     inkscape:zoom="0.70710678"
     inkscape:cx="-33.206082"
     inkscape:cy="232.45153"
     inkscape:document-units="px"
     inkscape:current-layer="layer1"
     showgrid="false"
     fit-margin-top="0"
     fit-margin-left="0"
     fit-margin-right="0"
     fit-margin-bottom="0"
     inkscape:window-width="1855"
     inkscape:window-height="1056"
     inkscape:window-x="65"
     inkscape:window-y="24"
     inkscape:window-maximized="1" />
  <metadata
     id="metadata19592">
    <rdf:RDF>
      <cc:Work
         rdf:about="">
        <dc:format>image/svg+xml</dc:format>
        <dc:type
           rdf:resource="http://purl.org/dc/dcmitype/StillImage" />
        <dc:title></dc:title>
      </cc:Work>
    </rdf:RDF>
  </metadata>
  <g
     inkscape:label="Calque 1"
     inkscape:groupmode="layer"
     id="layer1"
     transform="translate(-27.656367,-233.66344)">
    <path
       inkscape:connector-curvature="0"
       id="rect5084"
       d="m 36.255609,492.57978 c -0.0078,0.019 -0.0097,0.0349 -0.01953,0.0547 -0.04424,0.0889 -0.08183,0.18238 -0.132812,0.26758 -0.01209,0.0202 -0.186233,0.26669 -0.246094,0.29883 -0.287651,0.15441 -0.188702,0.0811 -0.384765,0.0996 -0.01749,0.002 0.0352,0.003 0.05273,0.004 -0.09405,0.0483 -0.189784,0.13863 -0.306641,0.17188 -0.0026,7.3e-4 -0.0052,0.001 -0.0078,0.002 -0.08108,0.0503 -0.1673,0.0957 -0.183594,0.0684 -0.0017,-0.003 -3.22e-4,-0.007 -0.002,-0.01 -0.0063,8.2e-4 -0.0284,0.0142 -0.0293,0.0117 -0.0104,-0.0287 -0.01774,-0.077 -0.0293,-0.11328 -0.06824,0.0671 -0.135318,0.13558 -0.203125,0.20313 -0.02916,0.038 -0.07225,0.0571 -0.111328,0.082 -0.03046,0.0274 -0.0609,0.0546 -0.08789,0.0859 -0.122647,0.15229 -0.231251,0.31599 -0.328125,0.48632 0.02711,0.0742 0.06788,0.14619 0.07422,0.22461 0.01693,0.20945 -0.162299,0.32011 -0.236328,0.4043 0.0062,-0.012 0.02731,-0.0482 0.01953,-0.0371 -0.03078,0.0438 -0.05561,0.092 -0.08789,0.13477 -0.01745,0.0231 -0.04025,0.0432 -0.06055,0.0644 -0.0078,0.0339 -0.01505,0.0676 -0.02344,0.10156 -0.0064,0.0349 -0.0089,0.0691 -0.01758,0.10352 -0.01351,0.0536 -0.03488,0.10665 -0.04883,0.16015 -0.06475,0.24832 0.01303,-0.0328 -0.01953,0.17578 -9.1e-5,5.8e-4 -0.04605,0.20027 -0.05469,0.23829 -0.08427,0.1905 -0.03312,0.10804 -0.146484,0.2539 -0.227278,0.29245 -0.245846,-0.093 -0.283203,-0.34961 -0.09208,0.0727 -0.189386,0.12934 -0.31836,0.13282 -0.04073,0.0261 -0.07901,0.0529 -0.132812,0.0762 -0.0049,0.004 -0.0078,0.0109 -0.01367,0.0137 -0.01996,0.01 -0.04297,0.0268 -0.06445,0.0391 -0.01169,0.007 -0.01249,0.0134 -0.01953,0.0195 -0.149968,0.13011 0.06072,-0.061 -0.09766,0.084 -0.110726,0.0686 -0.159424,0.11045 -0.216797,0.082 -0.01774,0.0182 -0.0413,0.0414 -0.04687,0.0508 -0.01645,0.0277 -0.01999,0.0633 -0.04297,0.0859 -0.06089,0.06 -0.136786,0.10427 -0.203125,0.1582 -0.01153,0.009 0.02638,-0.0157 0.03906,-0.0234 -0.0827,0.0489 -0.156009,0.11155 -0.236328,0.16407 -0.0068,0.013 -0.01417,0.0265 -0.01758,0.0391 -0.06764,0.13917 -0.166703,0.25788 -0.292969,0.34765 -0.04671,0.0332 -0.09965,0.0588 -0.146484,0.0918 -0.0066,0.005 -0.0055,0.0163 -0.01172,0.0215 -0.0263,0.0222 -0.05605,0.0385 -0.08398,0.0586 -0.06895,0.041 -0.108548,0.11658 -0.169922,0.16601 -0.05526,0.0445 -0.09225,0.06 -0.13086,0.082 -0.0609,0.0473 -0.127092,0.0888 -0.1875,0.13671 -0.0045,0.004 0.01381,-0.006 0.01758,-0.002 0.0196,0.0226 -0.158801,0.12541 -0.195313,0.14844 -0.01905,0.008 -0.03773,0.0154 -0.05664,0.0234 -0.0013,0.0142 -0.02141,0.0202 -0.03516,0.0293 -0.0028,0.002 -0.005,0.005 -0.0078,0.008 -0.007,0.006 -0.0145,0.0102 -0.02149,0.0156 -0.0049,0.003 -0.0075,0.007 -0.01172,0.01 -0.0011,8.8e-4 -0.0028,10e-4 -0.0039,0.002 -0.159567,0.12376 -0.324751,0.2394 -0.488281,0.35742 -0.0056,0.005 -0.0098,0.0113 -0.01563,0.0156 -0.01238,0.009 -0.01863,0.0102 -0.0293,0.0176 -0.05601,0.041 -0.113494,0.0799 -0.167968,0.12305 -0.04859,0.0745 -0.151044,0.15674 -0.21875,0.21289 -0.02647,0.0242 -0.04653,0.0551 -0.07617,0.0762 0.0064,-0.005 0.01396,-0.0132 0.01367,-0.008 -0.0011,0.0211 -0.02054,0.0385 -0.02734,0.0586 -0.0012,0.003 0.0068,-0.008 0.0098,-0.006 0.0056,0.004 0.0085,0.0127 0.0098,0.0195 0.0043,0.0228 0.0054,0.0453 0.0078,0.0684 -0.01181,0.0659 -0.01837,0.1325 -0.03516,0.19726 -0.009,0.0346 -0.03039,0.0661 -0.04297,0.0996 -0.01849,0.0492 0.02238,-0.0373 0.01367,0.0117 -0.01231,0.0694 -0.02831,0.13618 -0.04297,0.20508 -0.05591,0.1489 -0.11399,0.29696 -0.166016,0.44922 0.06586,-0.0444 -0.04952,0.13882 -0.05664,0.17968 -0.0016,0.009 0.0096,-0.0206 0.01367,0 0.0028,0.0144 0.0043,0.0284 0.0059,0.043 -0.02919,-0.0375 -0.04429,-0.0356 -0.05469,-0.0215 -0.0038,0.0339 -0.0092,0.0677 -0.01953,0.10156 -0.0038,0.0968 -0.0038,0.21925 -0.06055,0.22461 -0.03351,0.003 -0.06752,-0.004 -0.101563,-0.006 -0.138631,0.11846 -0.287131,0.17448 -0.490234,0.18555 l 0,307.85936 671.429692,0 0,-311.60741 -4.63672,-4.10547 -659.160159,0 z m -7.59375,6.93555 c -0.01276,0.003 -0.02674,0.0104 -0.03906,0.0117 l 0,0.22265 c 0.0071,-0.002 0.01821,-3.1e-4 0.02539,-0.002 -0.0017,-0.0664 9.15e-4,-0.13308 0.01367,-0.23242 z m 0.0059,0.17383 c -0.0029,0.01 -0.0058,0.009 -0.0059,0.0195 -3.14e-4,0.0451 -0.0025,0.0131 -0.0039,0.0371 0.0062,-0.001 0.01499,-0.001 0.02149,-0.002 -0.004,-0.0221 -0.0097,-0.0292 -0.01172,-0.0547 z m 0.06055,0.57617 c -0.075,0.0259 -0.113023,0.0435 -0.105469,0.0547 l 0,0.01 c 0.01923,0.008 0.06493,0.009 0.111328,0.01 0.0078,-0.002 0.01555,-0.004 0.02344,-0.006 -0.01147,-0.0125 -0.02032,-0.0422 -0.0293,-0.0684 z"
       style="color:#000000;clip-rule:nonzero;display:inline;overflow:visible;visibility:visible;opacity:1;isolation:auto;mix-blend-mode:normal;color-interpolation:sRGB;color-interpolation-filters:linearRGB;solid-color:#000000;solid-opacity:1;fill:#f05545;fill-opacity:1;fill-rule:nonzero;stroke:none;stroke-width:5;stroke-linecap:butt;stroke-linejoin:miter;stroke-miterlimit:4;stroke-dasharray:none;stroke-dashoffset:0;stroke-opacity:1;color-rendering:auto;image-rendering:auto;shape-rendering:auto;text-rendering:auto;enable-background:accumulate" />
    <path
       inkscape:connector-curvature="0"
       id="path5088"
       d="m 364.16098,660.99034 a 76.282248,27.968429 0 0 0 -61.27734,11.36719 l -0.14454,0 -106.43945,52.75 -167.855467,83.18946 14.699219,0 153.156248,-75.9043 106.43945,-52.75 0.14454,0 a 76.282248,27.968429 0 0 1 61.27734,-11.36524 76.282248,27.968429 0 0 1 61.2793,11.36524 l 0.13476,0 106.4375,52.75 153.1582,75.9043 14.69922,0 -167.85742,-83.18946 -106.4375,-52.75 -0.13476,0 a 76.282248,27.968429 0 0 0 -61.2793,-11.36719 z"
       style="color:#000000;clip-rule:nonzero;display:inline;overflow:visible;visibility:visible;opacity:1;isolation:auto;mix-blend-mode:normal;color-interpolation:sRGB;color-interpolation-filters:linearRGB;solid-color:#000000;solid-opacity:1;fill:#000000;fill-opacity:1;fill-rule:nonzero;stroke:none;stroke-width:5;stroke-linecap:butt;stroke-linejoin:miter;stroke-miterlimit:4;stroke-dasharray:none;stroke-dashoffset:0;stroke-opacity:1;color-rendering:auto;image-rendering:auto;shape-rendering:auto;text-rendering:auto;enable-background:accumulate" />
    <path
       inkscape:connector-curvature="0"
       id="path5103"
       d="m 78.331784,493.29463 -0.002,0.006 c 0.003,4.9e-4 0.006,3e-5 0.01,0 0.003,8.9e-4 0.007,3e-5 0.01,0 0.005,2.6e-4 0.0106,-8.8e-4 0.0156,0 0.0155,-1.2e-4 0.0136,0.0115 0.0176,0.0156 -8.4e-4,0 -0.002,-0.0174 -0.002,-0.0215 l -0.0488,0 z m -0.1875,0.008 c 1.3e-4,9.2e-4 0.005,0 0.004,0 -8.4e-4,2.1e-4 -0.003,-2.1e-4 -0.004,0 z m -4.265628,0.0508 c 0.0058,0.002 0.0034,0.004 -0.02148,0.0117 l -0.03906,0 c -7.43e-4,10e-6 -6.65e-4,0.0127 -0.002,0.0137 0.0016,9.1e-4 0.0031,1e-5 0.0039,0 l 0.002,0 c 0.02343,0.0152 0.01659,0.0131 0.01172,0.01 -6.43e-4,-9.3e-4 0.0031,0 0.0039,0 0.0034,-5.4e-4 0.0044,-2.9e-4 0.0078,0 0.0076,9.4e-4 0.01422,-0.002 0.02148,0.01 l 0.0039,0 c 0.0059,-10e-4 0.0096,-8.8e-4 0.01563,0 l 0.0098,0 c 0.01429,-10e-6 0.01953,0.002 0.03516,0.0137 0.0034,-3e-5 0.0031,-3e-4 0.0039,0 l 0.0039,0 c 0.0026,-10e-4 0.0066,3e-5 0.0098,0 -0.01989,-0.0135 -0.0045,-0.003 -0.07031,-0.0566 l 0,-0.002 z m -3.158204,0.0176 -35.978515,0.2832 c -0.02515,0.0271 -0.05717,0.0447 -0.08789,0.0645 -0.03045,0.0287 -0.06225,0.0559 -0.08984,0.0879 -0.122647,0.15229 -0.231251,0.31599 -0.328125,0.48632 0.02711,0.0742 0.06788,0.14619 0.07422,0.22461 0.01693,0.20945 -0.162299,0.32011 -0.236328,0.4043 0.0062,-0.012 0.02731,-0.0482 0.01953,-0.0371 -0.03078,0.0438 -0.05561,0.092 -0.08789,0.13477 -0.01745,0.0231 -0.04025,0.0432 -0.06055,0.0644 -0.0078,0.0339 -0.01505,0.0676 -0.02344,0.10156 -0.0064,0.0349 -0.0089,0.0691 -0.01758,0.10352 -0.01351,0.0536 -0.03488,0.10665 -0.04883,0.16015 -0.06475,0.24832 0.01303,-0.0328 -0.01953,0.17578 -9.1e-5,5.8e-4 -0.04605,0.20027 -0.05469,0.23829 -0.08427,0.1905 -0.03312,0.10804 -0.146484,0.2539 -0.227278,0.29245 -0.245846,-0.093 -0.283203,-0.34961 -0.09208,0.0727 -0.189386,0.12934 -0.31836,0.13282 -0.04073,0.0261 -0.07901,0.0529 -0.132812,0.0762 -0.0049,0.004 -0.0078,0.0109 -0.01367,0.0137 -0.01996,0.01 -0.04297,0.0268 -0.06445,0.0391 -0.01169,0.007 -0.01249,0.0134 -0.01953,0.0195 -0.149968,0.13011 0.06072,-0.061 -0.09766,0.084 -0.110726,0.0686 -0.159424,0.11045 -0.216797,0.082 -0.01774,0.0182 -0.0413,0.0414 -0.04687,0.0508 -0.01645,0.0277 -0.01999,0.0633 -0.04297,0.0859 -0.06089,0.06 -0.136786,0.10427 -0.203125,0.1582 -0.01153,0.009 0.02638,-0.0157 0.03906,-0.0234 -0.0827,0.0489 -0.156009,0.11155 -0.236328,0.16407 -0.0068,0.013 -0.01417,0.0265 -0.01758,0.0391 -0.06764,0.13917 -0.166703,0.25788 -0.292969,0.34765 -0.04671,0.0332 -0.09965,0.0588 -0.146484,0.0918 -0.0066,0.005 -0.0055,0.0163 -0.01172,0.0215 -0.0263,0.0222 -0.05605,0.0385 -0.08398,0.0586 -0.06895,0.041 -0.108548,0.11658 -0.169922,0.16601 -0.05526,0.0445 -0.09225,0.06 -0.13086,0.082 -0.0609,0.0473 -0.127092,0.0888 -0.1875,0.13671 -0.0045,0.004 0.01381,-0.006 0.01758,-0.002 0.0196,0.0226 -0.158801,0.12541 -0.195313,0.14844 -0.01905,0.008 -0.03773,0.0154 -0.05664,0.0234 -0.0013,0.0142 -0.02141,0.0202 -0.03516,0.0293 -0.0028,0.002 -0.005,0.005 -0.0078,0.008 -0.007,0.006 -0.0145,0.0102 -0.02149,0.0156 -0.0049,0.003 -0.0075,0.007 -0.01172,0.01 -0.0011,8.8e-4 -0.0028,10e-4 -0.0039,0.002 -0.159567,0.12376 -0.324751,0.2394 -0.488281,0.35742 -0.0056,0.005 -0.0098,0.0113 -0.01563,0.0156 -0.01238,0.009 -0.01863,0.0102 -0.0293,0.0176 -0.05601,0.041 -0.113494,0.0799 -0.167968,0.12305 -0.04859,0.0745 -0.151044,0.15674 -0.21875,0.21289 -0.02647,0.0242 -0.04653,0.0551 -0.07617,0.0762 0.0064,-0.005 0.01396,-0.0132 0.01367,-0.008 -0.0011,0.0211 -0.02054,0.0385 -0.02734,0.0586 -0.0012,0.003 0.0068,-0.008 0.0098,-0.006 0.0056,0.004 0.0085,0.0127 0.0098,0.0195 0.0043,0.0228 0.0054,0.0453 0.0078,0.0684 -3.61e-4,0.002 -0.0016,0.004 -0.002,0.006 l 39.289063,-0.3086 a 45.233503,32.801881 89.558432 0 1 2.603515,0.15821 c 0.01582,-0.006 0.03297,-0.0194 0.04883,-0.0195 0.0071,-7.7e-4 0.01289,5e-5 0.01953,0 6.3e-5,0.008 -0.0027,0.0215 -0.002,0.0215 a 45.233503,32.801881 89.558432 0 1 9.410158,2.9707 c 0.0173,0.002 0.0334,0.004 0.0449,0.0137 0.004,0.003 0.008,0.006 0.0117,0.0156 a 45.233503,32.801881 89.558432 0 1 1.27539,0.73828 l 0.0137,0 c 0.0425,6.7e-4 0.0762,0.0284 0.11328,0.0508 -0.007,0.009 -0.0188,0.0235 -0.004,0.0234 a 45.233503,32.801881 89.558432 0 0 0.002,0 c 0.0119,-4.1e-4 0.0103,6e-5 0.0176,0 0.006,-5e-5 0.0114,0.01 0.0176,0.01 0.009,0.003 0.0181,0.0157 0.0273,0.0156 0.0148,0.004 0.0303,0.006 0.0449,0.0156 0.0302,0.0128 -0.018,-0.007 0.0234,0.0117 0.002,6e-4 0.002,-5.9e-4 0.004,0 0.006,0.003 0.0124,0.0145 0.0195,0.0156 0.006,0.002 0.0134,0.0117 0.0195,0.0117 0.008,0.002 0.0272,0.0148 0.0312,0.0156 0.0124,0.0153 0.0254,0.0256 0.0371,0.041 0.0125,0.0163 0.023,0.0316 0.0352,0.0469 a 45.233503,32.801881 89.558432 0 1 1.70508,1.11719 45.233503,32.801881 89.558432 0 0 0.002,0 c 0.008,-5.8e-4 0.009,4e-5 0.0137,0 0.007,0.006 0.0123,0.008 0.0195,0.0176 10e-4,0.0119 0.003,0.0117 0.004,0.0117 a 45.233503,32.801881 89.558432 0 1 0.0957,0.0664 c 0.005,-0.0107 0.0105,-0.01 0.0156,-0.01 -0.004,3e-5 -0.008,0.01 -0.0117,0.01 a 45.233503,32.801881 89.558432 0 1 0.0644,0.043 45.233503,32.801881 89.558432 0 0 0.002,0 c 0.003,0.0108 0.006,0.01 0.008,0.01 0.0189,0.0168 -6.7e-4,-0.002 0.0215,0.0156 0.007,0.003 0.0105,0.0156 0.0156,0.0156 l 0.002,0 a 45.233503,32.801881 89.558432 0 1 0.13476,0.11523 l 0.002,0 0.002,0 a 45.233503,32.801881 89.558432 0 1 0.19532,0.16211 l 0.0176,0 0.002,0 0.002,0 c 0.002,-2e-5 0.002,-9.7e-4 0.004,0 0.004,-3e-5 0.01,0.0117 0.0137,0.0117 l 0.008,0 c 0.0138,-0.0155 0.0155,-0.0169 0.0195,-0.0273 l 108.421876,84.00586 109.31054,84.6875 8.25977,-0.0645 L 195.31225,583.08955 86.890374,499.08369 c -0.004,0.0103 -0.004,0.0137 -0.0176,0.0293 l -0.008,0 c -0.004,3e-5 -0.0119,-0.0117 -0.0156,-0.0117 -0.002,-9.9e-4 -0.002,-1e-5 -0.004,0 l -0.002,0 -0.002,0 -0.0176,0 a 45.233503,32.801881 89.558432 0 0 -0.19531,-0.16407 l -0.002,0 -0.002,0 a 45.233503,32.801881 89.558432 0 0 -0.13672,-0.11523 l -0.002,0 c -0.005,-9.6e-4 -0.009,-0.0108 -0.0156,-0.0137 -0.0222,-0.0183 0.001,-10e-4 -0.0176,-0.0176 -0.003,2e-5 -0.005,0.001 -0.008,-0.01 a 45.233503,32.801881 89.558432 0 0 -0.004,0 45.233503,32.801881 89.558432 0 0 -0.0625,-0.041 c 0.004,-3e-5 0.008,-0.0117 0.0117,-0.0117 -0.005,4e-5 -0.0107,7.2e-4 -0.0156,0.0117 a 45.233503,32.801881 89.558432 0 0 -0.0977,-0.0644 c -8.4e-4,10e-6 -0.003,-0.002 -0.004,-0.0137 -0.007,-0.0102 -0.0125,-0.0133 -0.0195,-0.0195 -0.005,10e-4 -0.004,-5.9e-4 -0.0117,0 a 45.233503,32.801881 89.558432 0 0 -0.002,0 45.233503,32.801881 89.558432 0 0 -1.70508,-1.11523 c -0.0122,-0.0153 -0.0246,-0.0306 -0.0371,-0.0469 -0.0116,-0.0153 -0.0228,-0.0276 -0.0352,-0.043 -0.004,-7.9e-4 -0.0253,-0.0117 -0.0332,-0.0137 -0.006,5e-5 -0.0132,-0.0101 -0.0195,-0.0117 -0.007,-9.4e-4 -0.0111,-0.0125 -0.0176,-0.0156 -0.002,-6.1e-4 -0.002,6e-4 -0.004,0 -0.0415,-0.0192 0.005,0.003 -0.0254,-0.01 -0.0146,-0.0102 -0.0282,-0.0116 -0.043,-0.0156 -0.009,7e-5 -0.02,-0.0107 -0.0293,-0.0137 -0.006,5e-5 -0.0114,-0.0117 -0.0176,-0.0117 -0.008,10e-4 -0.004,-3.9e-4 -0.0156,0 a 45.233503,32.801881 89.558432 0 0 -0.002,0 c -0.0148,1.1e-4 -0.004,-0.014 0.004,-0.0234 -0.0371,-0.0223 -0.0728,-0.0521 -0.11523,-0.0527 l -0.0137,0.002 a 45.233503,32.801881 89.558432 0 0 -1.27539,-0.73633 c -0.004,-0.0103 -0.006,-0.0127 -0.01,-0.0156 -0.0115,-0.0102 -0.0315,-0.0136 -0.0488,-0.0156 a 45.233503,32.801881 89.558432 0 0 -9.408208,-2.96875 c -8.02e-4,10e-6 0,-0.0133 0,-0.0215 -0.0067,-9.4e-4 -0.01058,-7.8e-4 -0.01758,0 -0.01588,1.2e-4 -0.03301,0.0132 -0.04883,0.0195 a 45.233503,32.801881 89.558432 0 0 -2.601563,-0.16211 z m 7.558592,0.01 c 0.001,-1e-5 0.003,0.008 0.006,0.01 l 0.0176,0 c -0.009,6e-5 -0.016,10e-4 -0.0234,-0.01 z m -1.63281,0.15821 0,0.002 c 0.004,0.0123 0.004,0.0131 0.008,0.0234 0.013,5.1e-4 0.024,10e-4 0.0371,0 l 0.0195,-0.002 c -0.003,2e-5 -0.007,-0.002 -0.01,-0.0137 -0.009,7e-5 -0.0243,-0.009 -0.0273,-0.01 -0.002,-9e-5 -0.0149,3.1e-4 -0.0273,0 z m 0.99805,0.21484 c 0.004,0.0103 0.009,0.0155 0.0137,0.0195 0.004,-3e-5 0.017,0.0107 0.0176,0.0117 8.4e-4,0 0.0311,0.0144 0.043,0.0215 -0.0209,-0.0132 -0.0388,-0.0273 -0.0742,-0.0527 z m 0.5664,0.0898 -0.0176,0.002 -0.0137,0 c -0.006,-1.6e-4 -0.0117,-5e-5 -0.0176,0 l 0,0.006 c -0.002,1.1e-4 -0.004,-10e-6 -0.006,0 -0.003,0.001 -0.005,-3e-5 -0.008,0 -0.005,0.001 -0.0108,-4e-5 -0.0156,0 -0.009,7e-5 -0.0187,-10e-4 -0.0273,0 0.002,0.0113 0.005,0.0104 0.006,0.0176 l 0.0371,0 c 0.0234,-1.8e-4 0.0341,0.0108 0.0449,0.0117 0.007,-10e-4 0.0102,-0.0136 0.0176,-0.0137 -6e-4,-0.0103 -0.003,-0.012 0,-0.0234 z m -0.16992,0.004 0,0.004 -0.002,0 c -0.005,4e-5 -0.0103,0.008 -0.0156,0.01 -0.005,4e-5 -0.009,6.8e-4 -0.0137,0 l -0.002,0 c 0.002,-10e-6 0.008,0.0145 0.008,0.0156 0.0139,-7.3e-4 0.0278,-6.6e-4 0.043,0 -0.003,-0.0134 -0.0104,-0.0201 -0.0176,-0.0293 z m 0.41406,0.0176 0,0.0117 c -0.0136,0.0104 -0.0229,0.0237 -0.0332,0.0371 0.003,5.8e-4 0.006,10e-6 0.008,0 0.023,-1.8e-4 0.0446,-0.003 0.0664,-0.0156 0.004,-4e-5 0.0109,10e-4 0.0156,-0.01 -0.0152,-0.0112 -0.0258,-1e-4 -0.0449,-0.0137 -0.0108,8e-5 -0.008,-4.6e-4 -0.0117,-0.01 z m 0.125,0.0508 c 9e-4,0.0103 -7.2e-4,0.0151 -0.004,0.0254 l 0.0879,0 c -0.0321,10e-4 -0.0593,-0.0184 -0.084,-0.0254 z m 0.20118,0.006 0,0.004 c -0.002,10e-6 -0.055,0.0116 -0.0566,0.0137 0.0151,-1.1e-4 0.0323,-0.0101 0.0469,0 0.003,9.8e-4 0.0167,0.0142 0.0273,0.0234 0.0115,-0.0104 0.0213,-0.0125 0.0293,-0.0156 -0.0125,-0.0102 -0.0246,-0.0103 -0.0371,-0.0156 -0.003,3e-5 -0.007,10e-4 -0.01,-0.01 z m -0.46289,0.008 0,0.0117 c 0.005,7.8e-4 0.0128,2.4e-4 0.0176,0 -10e-4,-9.9e-4 -0.0117,-0.0117 -0.0176,-0.0117 z m 0.0293,0.50977 0,0.006 c 0.0108,0.0102 0.0202,0.0181 0.0312,0.0273 0.003,2.8e-4 0.004,2e-5 0.008,0 -0.007,-0.0103 -0.0136,-0.0141 -0.0195,-0.0234 -0.008,10e-4 -0.0121,-0.01 -0.0195,-0.01 z m 2.97851,0.32031 0,0.004 c -0.002,5.2e-4 -0.008,-2e-5 -0.01,0 0.0226,0.0183 0.0446,0.0385 0.0684,0.0527 0.0134,0.0112 0.0619,0.0422 0.0684,0.0586 0.006,-4.6e-4 0.0116,-10e-4 0.0176,-0.002 l -0.14453,-0.11328 z m 0.32227,0.75586 0,0.002 0,0.006 c -0.003,7.4e-4 -0.001,0.0106 -0.004,0.0137 0.0255,0.0204 0.006,0.0149 0.0488,0.0547 0.0121,0.0122 0.0243,0.0151 0.0371,0.0254 0.0476,-3.7e-4 0.0945,4.7e-4 0.14648,0.0293 0.0289,0.0111 0.0478,0.0222 0.0684,0.0312 -0.002,-9.9e-4 -0.0134,-0.0117 -0.0137,-0.0117 -0.0755,-0.0961 -0.0389,-0.0536 -0.0195,-0.0332 l -0.0176,0 c -0.0546,-0.014 -0.10624,-0.0406 -0.16016,-0.0586 -0.003,2e-5 -0.007,-0.008 -0.01,-0.01 -0.0272,-0.0101 -0.0488,-0.0541 -0.0762,-0.0488 z m 0.47461,0.24023 0,0.01 c -1.7e-4,-0.0103 0.017,-2e-5 0.0137,0 -0.004,-0.008 -0.009,-0.01 -0.0137,-0.01 z m 3.85156,2.59961 0,0.0117 0.002,0 c 0.002,9.9e-4 0.002,1e-5 0.004,0 0.002,9.8e-4 0.007,6.3e-4 0.01,0 l -0.0156,-0.0117 z m -9.41602,0.0293 0.0508,0 c 3e-5,0.004 9.6e-4,0.0234 0.002,0.0234 -0.004,-0.004 -0.004,-0.0177 -0.0195,-0.0176 -0.005,-9.6e-4 -0.0106,2.7e-4 -0.0156,0 -0.003,3e-5 -0.006,9e-4 -0.01,0 -0.004,3e-5 -0.007,5e-4 -0.01,0 l 0.002,-0.006 z m -4.453123,0.0644 c 0.06579,0.0581 0.05044,0.0473 0.07031,0.0606 -0.0032,2e-5 -0.0072,-10e-4 -0.0098,0 l -0.002,0 c -8.21e-4,-3.1e-4 -5.41e-4,-3e-5 -0.0039,0 -0.01565,-0.0143 -0.02284,-0.0176 -0.03711,-0.0176 l -0.0098,0 -0.01562,0 -0.002,0 c -0.0073,-0.0103 -0.01586,-0.008 -0.02344,-0.01 -0.0034,-2.8e-4 -0.0044,-5.4e-4 -0.0078,0 -8.18e-4,1e-5 -0.0045,-9.2e-4 -0.0039,0 0.0048,0.004 0.01172,0.006 -0.01172,-0.01 l -0.002,0 c -8.18e-4,0 -0.0023,9e-4 -0.0039,0 0.0012,-10e-4 0.001,-0.0117 0.002,-0.0117 l 0.04102,0 c 0.0249,-0.0125 0.02526,-0.0117 0.01953,-0.0117 z m 4.400393,0.0273 c 0.008,0.0105 0.0168,0.0117 0.0254,0.0117 l -0.0195,0 c -0.003,3e-5 -0.004,-0.01 -0.006,-0.01 l 0,-0.002 z m -1.632815,0.15625 c 0.01245,3.1e-4 0.02766,-10e-5 0.0293,0 0.003,9.7e-4 0.0168,0.0118 0.02539,0.0117 0.0026,0.0118 0.0072,0.0118 0.0098,0.0117 l -0.01758,0 c -0.0131,0.001 -0.02602,5.1e-4 -0.03906,0 -0.0035,-0.0103 -0.0043,-0.008 -0.0078,-0.0215 l 0,-0.002 z m 0.998047,0.21679 c 0.03541,0.0254 0.05332,0.0395 0.07422,0.0527 -0.01191,-0.007 -0.04019,-0.0234 -0.04102,-0.0234 -6.01e-4,-9.9e-4 -0.01533,-0.0117 -0.01953,-0.0117 -0.0048,-0.004 -0.0093,-0.007 -0.01367,-0.0176 z m 0.398438,0.0859 c 0.007,0.009 0.0131,0.016 0.0156,0.0293 -0.0152,-8.9e-4 -0.0291,10e-4 -0.043,0.002 -1e-5,-0.001 -0.006,-0.0156 -0.008,-0.0156 l 0.002,0 c 0.005,6.9e-4 0.0106,-0.002 0.0156,-0.002 0.005,-4e-5 0.0106,-0.01 0.0156,-0.01 l 0.002,0 0,-0.004 z m 0.11914,0.008 0.002,0 c 0.006,-5e-5 0.0117,-1.7e-4 0.0176,0 l 0.0117,0 0.0176,0 c -0.003,0.0113 -6.1e-4,0.0131 0,0.0234 -0.007,5e-5 -0.0109,0.0127 -0.0176,0.0137 -0.0109,-9.1e-4 -0.0215,-0.0139 -0.0449,-0.0137 l -0.0352,0 c -8.7e-4,-0.007 -0.004,-0.006 -0.006,-0.0176 0.009,-10e-4 0.0165,7e-5 0.0254,0 0.005,-4e-5 0.0106,0.001 0.0156,0 0.003,-3e-5 0.004,0.001 0.008,0 0.002,-2e-5 0.004,1.2e-4 0.006,0 l 0,-0.006 z m 0.29492,0.0156 c 0.003,0.008 0.002,0.01 0.0117,0.01 0.0191,0.0139 0.0278,0.003 0.043,0.0137 -0.005,0.0107 -0.0114,0.0117 -0.0156,0.0117 -0.0218,0.0119 -0.0434,0.0135 -0.0664,0.0137 -0.002,2e-5 -0.004,5.9e-4 -0.008,0 0.0104,-0.0135 0.0215,-0.0229 0.0352,-0.0332 l 0,-0.0117 0,-0.002 0,-0.002 z m 0.12305,0.0488 c 0.0247,0.007 0.0538,0.0245 0.0859,0.0234 l -0.0898,0 c 0.003,-0.0103 0.005,-0.0131 0.004,-0.0234 z m 0.20117,0.004 c 0.003,0.006 0.007,0.01 0.01,0.01 0.0125,0.006 0.0226,0.008 0.0352,0.0176 -0.008,0.003 -0.0139,0.007 -0.0254,0.0176 -0.0106,-0.009 -0.0267,-0.0254 -0.0293,-0.0254 -0.0146,-0.0102 -0.0318,0.002 -0.0469,0.002 0.002,-0.002 0.055,-0.0156 0.0566,-0.0156 l 0,-0.006 z m -0.46094,0.008 c 0.006,-4e-5 0.0143,0.0107 0.0156,0.0117 -0.005,2.4e-4 -0.0105,7.8e-4 -0.0156,0 l 0,-0.0117 z m 0.0273,0.51367 c 0.008,-6e-5 0.012,0.0125 0.0195,0.0117 0.006,0.009 0.0148,0.0131 0.0215,0.0234 -0.003,3e-5 -0.004,2.9e-4 -0.008,0 -0.0111,-0.009 -0.0224,-0.0171 -0.0332,-0.0273 l 0,-0.006 0,-0.002 z m 2.97852,0.3125 0.14453,0.11523 c -0.006,4.5e-4 -0.0114,-4.6e-4 -0.0176,0 -0.007,-0.0164 -0.055,-0.0473 -0.0684,-0.0586 -0.0237,-0.0142 -0.0457,-0.0324 -0.0684,-0.0508 0.002,-10e-6 0.008,5.3e-4 0.01,0 l 0,-0.006 z m 0.32422,0.76367 c 0.0274,-0.005 0.049,0.0387 0.0762,0.0488 0.003,-3e-5 0.007,0.0118 0.01,0.0117 0.0539,0.0181 0.10356,0.0465 0.1582,0.0605 l 0.0176,0 c -0.0194,-0.0204 -0.054,-0.0687 0.0215,0.0273 3e-4,0 0.0116,0.0127 0.0137,0.0137 -0.0206,-0.009 -0.0394,-0.0163 -0.0684,-0.0273 -0.052,-0.0286 -0.0988,-0.0297 -0.14648,-0.0293 -0.0128,-0.0102 -0.0269,-0.017 -0.0391,-0.0293 -0.0432,-0.0398 -0.0213,-0.0323 -0.0469,-0.0527 0.003,-0.003 8.4e-4,-0.013 0.004,-0.0137 l 0,-0.01 z m 0.47265,0.23633 c 0.005,-3e-5 0.0115,0.001 0.0156,0.0117 0.003,-3e-5 -0.0158,-0.0103 -0.0156,0 l 0,-0.0117 z m 3.85157,2.59961 0.002,0 0.0156,0.0117 c -0.003,6.4e-4 -0.008,-2e-5 -0.01,0 l -0.004,0 -0.004,0 0,-0.0117 z"
       style="color:#000000;clip-rule:nonzero;display:inline;overflow:visible;visibility:visible;opacity:1;isolation:auto;mix-blend-mode:normal;color-interpolation:sRGB;color-interpolation-filters:linearRGB;solid-color:#000000;solid-opacity:1;fill:#000000;fill-opacity:1;fill-rule:nonzero;stroke:none;stroke-width:5;stroke-linecap:butt;stroke-linejoin:miter;stroke-miterlimit:4;stroke-dasharray:none;stroke-dashoffset:0;stroke-opacity:0.99033813;color-rendering:auto;image-rendering:auto;shape-rendering:auto;text-rendering:auto;enable-background:accumulate" />
    <path
       inkscape:connector-curvature="0"
       id="path5088-1"
       d="m 364.3338,236.41344 a 74.766984,49.373083 0 0 0 -60.06211,20.06315 l -0.14032,0 -104.32179,93.12218 -164.524233,146.85635 52.827447,0 -0.32938,-0.26563 275.160756,0 275.1588,0 -0.32742,0.26563 55.59892,0 -164.52229,-146.85635 -104.32373,-93.12218 -0.12864,0 A 74.766984,49.373083 0 0 0 364.3338,236.41344 Z"
       style="color:#000000;clip-rule:nonzero;display:inline;overflow:visible;visibility:visible;opacity:1;isolation:auto;mix-blend-mode:normal;color-interpolation:sRGB;color-interpolation-filters:linearRGB;solid-color:#000000;solid-opacity:1;fill:#7f868d;fill-opacity:1;fill-rule:nonzero;stroke:#000000;stroke-width:5.5;stroke-linecap:butt;stroke-linejoin:miter;stroke-miterlimit:4;stroke-dasharray:none;stroke-dashoffset:0;stroke-opacity:1;color-rendering:auto;image-rendering:auto;shape-rendering:auto;text-rendering:auto;enable-background:accumulate" />
    <path
       inkscape:connector-curvature="0"
       id="path5088-1-6"
       d="m 76.465834,493.98496 143.602946,109.64427 88.31294,67.43023 a 78.039625,27.920124 0 0 1 56.40894,-8.68809 78.039625,27.920124 0 0 1 54.8644,8.15386 l 87.61559,-66.896 143.60095,-109.64427 -287.20188,0 -287.203886,0 z"
       style="color:#000000;clip-rule:nonzero;display:inline;overflow:visible;visibility:visible;opacity:1;isolation:auto;mix-blend-mode:normal;color-interpolation:sRGB;color-interpolation-filters:linearRGB;solid-color:#000000;solid-opacity:1;fill:#ffffff;fill-opacity:0.80784314;fill-rule:nonzero;stroke:none;stroke-width:5;stroke-linecap:butt;stroke-linejoin:miter;stroke-miterlimit:4;stroke-dasharray:none;stroke-dashoffset:0;stroke-opacity:0.99033813;color-rendering:auto;image-rendering:auto;shape-rendering:auto;text-rendering:auto;enable-background:accumulate" />
    <path
       style="color:#000000;clip-rule:nonzero;display:inline;overflow:visible;visibility:visible;opacity:1;isolation:auto;mix-blend-mode:normal;color-interpolation:sRGB;color-interpolation-filters:linearRGB;solid-color:#000000;solid-opacity:1;fill:#000000;fill-opacity:1;fill-rule:nonzero;stroke:none;stroke-width:5;stroke-linecap:butt;stroke-linejoin:miter;stroke-miterlimit:4;stroke-dasharray:none;stroke-dashoffset:0;stroke-opacity:0.99033813;color-rendering:auto;image-rendering:auto;shape-rendering:auto;text-rendering:auto;enable-background:accumulate"
       d="m 655.92443,493.7713 -0.002,0.004 c -0.0658,0.0562 -0.0502,0.0427 -0.0702,0.0565 0.003,3e-5 0.009,-9.9e-4 0.0117,0 l 0.004,0 c 10e-4,-2.9e-4 8.2e-4,-3e-5 0.004,0 0.0158,-0.0138 0.0207,-0.0136 0.0351,-0.0137 l 0.01,0 c 0.006,-9.4e-4 0.01,-0.001 0.0156,0 l 0.004,0 c 0.007,-0.01 0.0135,-0.009 0.0215,-0.01 0.004,-2.6e-4 0.005,-5.3e-4 0.008,0 10e-4,10e-6 0.005,-8.9e-4 0.004,0 -0.005,0.004 -0.0118,0.005 0.0117,-0.01 l 0.002,0 c 10e-4,1e-5 0.002,9.5e-4 0.004,0 -9.9e-4,-10e-4 -9.5e-4,-0.0137 -0.002,-0.0137 l -0.0391,0 c -0.0254,-0.0123 -0.0275,-0.0137 -0.0215,-0.0137 z m 3.17377,0.0236 c -0.8721,0.004 -1.74398,0.0553 -2.61357,0.15392 -0.0158,-0.006 -0.0328,-0.0193 -0.0487,-0.0195 -0.007,-7.8e-4 -0.0125,-7.9e-4 -0.0195,0 -9e-5,0.009 0.003,0.0215 0.002,0.0215 -5.25029,0.86361 -9.07394,2.50534 -12.92198,5.06574 l -0.002,0 c -0.008,-6.8e-4 -0.007,10e-4 -0.0117,0 -0.007,0.007 -0.0124,0.009 -0.0195,0.0195 -10e-4,0.014 -0.005,0.0137 -0.006,0.0137 -0.0332,0.0207 -0.0664,0.0415 -0.0995,0.0623 -0.005,-0.0111 -0.0106,-0.01 -0.0156,-0.01 0.004,4e-5 0.008,0.01 0.0117,0.01 -0.0208,0.0143 -0.0416,0.0286 -0.0624,0.0429 l -0.004,0 c -0.003,0.01 -0.005,0.01 -0.008,0.01 -0.0188,0.0168 0.005,-8.2e-4 -0.0176,0.0176 -0.007,0.003 -0.0106,0.0146 -0.0156,0.0156 l -0.002,0 c -0.0456,0.0375 -0.0911,0.0752 -0.13663,0.113 l -0.002,0 -0.002,0 c -0.0659,0.0542 -0.13158,0.10879 -0.19716,0.16366 l -0.0176,0 -0.002,0 -0.002,0 c -0.002,-2e-5 -0.002,-9.6e-4 -0.004,0 -0.004,-4e-5 -0.0116,0.0118 -0.0156,0.0117 l -0.008,0 c -0.0134,-0.0151 -0.0137,-0.0192 -0.0176,-0.0292 l -109.11028,83.5218 -116.53526,89.19526 8.29551,0.0857 110.00621,-84.1998 109.11028,-83.51985 c 0.004,0.01 0.005,0.0122 0.0195,0.0272 l 0.008,0.002 c 0.004,4e-5 0.01,-0.0117 0.0137,-0.0117 0.002,-9.8e-4 0.002,-2e-5 0.004,0 l 0.002,0 0.002,0 0.0176,0 c 0.0656,-0.0542 0.1313,-0.10812 0.19715,-0.16171 l 0.002,0 0.002,0 c 1.06184,-0.8808 2.52628,-1.68808 3.79175,-2.39951 0.003,-0.006 0.008,-0.0137 0.0117,-0.0137 0.0117,-0.0139 0.0295,-0.0139 0.0468,-0.0137 3.03308,-1.61184 6.22046,-2.60253 9.45883,-2.93999 0.001,1e-5 -0.002,-0.0115 -0.002,-0.0215 0.007,7e-5 0.0125,-7.7e-4 0.0195,0 0.0159,1.7e-4 0.0329,0.007 0.0488,0.0176 0.87026,-0.0981 1.74279,-0.14876 2.61553,-0.15197 l 39.19967,0.4072 0,-1.42615 -4.07553,-3.6784 -36.8906,-0.38187 z"
       id="path5103-8"
       inkscape:connector-curvature="0"
       sodipodi:nodetypes="ccccccccccccccccsccccccccccccccccccccccccccccccccccccccccccccccccccccccccccccc" />
    <path
       inkscape:connector-curvature="0"
       id="path5103-8-8"
       d="m 65.079827,367.54876 c -8.5e-4,7e-4 -0.002,0.004 -0.002,0.006 l 0.002,-0.006 z m 5.115235,1.93505 -0.002,0.006 c 9.3e-4,-6.2e-4 0.002,-0.004 0.002,-0.006 z m -36.564453,124.66617 -5.171875,5.16533 0.01758,150.14558 0.0098,158.863 5.119141,0 -0.01172,-156.92406 -0.01367,-157.11136 c 0.0104,0.003 0.0125,0.003 0.0332,0.002 l 0.0039,-0.008 c 0.003,-0.003 -0.0026,-0.0159 0,-0.0194 4.5e-4,-0.002 0.0018,-0.003 0.0039,-0.006 l 0,-0.002 0.002,0 0.0098,-0.0156 a 48.261651,35.282419 50.622377 0 1 -0.002,-0.0897 z"
       style="color:#000000;clip-rule:nonzero;display:inline;overflow:visible;visibility:visible;opacity:1;isolation:auto;mix-blend-mode:normal;color-interpolation:sRGB;color-interpolation-filters:linearRGB;solid-color:#000000;solid-opacity:1;fill:#000000;fill-opacity:1;fill-rule:nonzero;stroke:none;stroke-width:5;stroke-linecap:butt;stroke-linejoin:miter;stroke-miterlimit:4;stroke-dasharray:none;stroke-dashoffset:0;stroke-opacity:0.99033813;color-rendering:auto;image-rendering:auto;shape-rendering:auto;text-rendering:auto;enable-background:accumulate" />
    <rect
       transform="matrix(0.70710678,0.70710678,-0.70710678,0.70710678,0,0)"
       y="325.52142"
       x="372.68134"
       height="8.0479021"
       width="0.86723089"
       id="rect5643"
       style="color:#000000;clip-rule:nonzero;display:inline;overflow:visible;visibility:visible;opacity:1;isolation:auto;mix-blend-mode:normal;color-interpolation:sRGB;color-interpolation-filters:linearRGB;solid-color:#000000;solid-opacity:1;fill:#ffffff;fill-opacity:1;fill-rule:nonzero;stroke:none;stroke-width:5;stroke-linecap:butt;stroke-linejoin:miter;stroke-miterlimit:4;stroke-dasharray:none;stroke-dashoffset:0;stroke-opacity:1;color-rendering:auto;image-rendering:auto;shape-rendering:auto;text-rendering:auto;enable-background:accumulate" />
    <path
       inkscape:connector-curvature="0"
       id="path5103-8-8-0"
       d="m 663.45264,367.51138 c 8.5e-4,7e-4 0.002,0.004 0.002,0.006 l -0.002,-0.006 z m -5.11524,1.93505 0.002,0.006 c -9.3e-4,-6.2e-4 -0.002,-0.004 -0.002,-0.006 z m 36.56446,124.66617 5.17187,5.16533 -0.0176,150.14558 -0.01,158.86298 -5.11914,0 0.0117,-156.92404 0.0137,-157.11136 c -0.0104,0.003 -0.0125,0.003 -0.0332,0.002 l -0.004,-0.008 c -0.003,-0.003 0.003,-0.0159 0,-0.0194 -4.5e-4,-0.002 -0.002,-0.003 -0.004,-0.006 l 0,-0.002 -0.002,0 -0.01,-0.0156 a 35.282419,48.261651 39.377623 0 0 0.002,-0.0897 z"
       style="color:#000000;clip-rule:nonzero;display:inline;overflow:visible;visibility:visible;opacity:1;isolation:auto;mix-blend-mode:normal;color-interpolation:sRGB;color-interpolation-filters:linearRGB;solid-color:#000000;solid-opacity:1;fill:#000000;fill-opacity:1;fill-rule:nonzero;stroke:none;stroke-width:5;stroke-linecap:butt;stroke-linejoin:miter;stroke-miterlimit:4;stroke-dasharray:none;stroke-dashoffset:0;stroke-opacity:0.99033813;color-rendering:auto;image-rendering:auto;shape-rendering:auto;text-rendering:auto;enable-background:accumulate" />
    <path
       style="color:#000000;clip-rule:nonzero;display:inline;overflow:visible;visibility:visible;opacity:1;isolation:auto;mix-blend-mode:normal;color-interpolation:sRGB;color-interpolation-filters:linearRGB;solid-color:#000000;solid-opacity:1;fill:#ffffff;fill-opacity:1;fill-rule:nonzero;stroke:none;stroke-width:5;stroke-linecap:butt;stroke-linejoin:miter;stroke-miterlimit:4;stroke-dasharray:none;stroke-dashoffset:0;stroke-opacity:1;color-rendering:auto;image-rendering:auto;shape-rendering:auto;text-rendering:auto;enable-background:accumulate"
       d="m 692.40888,487.48295 -2.21289,2.38086 9.9375,9.23242 0,-4.43555 -7.72461,-7.17773 z"
       id="rect5645"
       inkscape:connector-curvature="0" />
    <path
       inkscape:connector-curvature="0"
       style="color:#000000;clip-rule:nonzero;display:inline;overflow:visible;visibility:visible;opacity:1;isolation:auto;mix-blend-mode:normal;color-interpolation:sRGB;color-interpolation-filters:linearRGB;solid-color:#000000;solid-opacity:1;fill:#62717b;fill-opacity:0.80784314;fill-rule:nonzero;stroke:none;stroke-width:5;stroke-linecap:butt;stroke-linejoin:miter;stroke-miterlimit:4;stroke-dasharray:none;stroke-dashoffset:0;stroke-opacity:0.99033813;color-rendering:auto;image-rendering:auto;shape-rendering:auto;text-rendering:auto;enable-background:accumulate"
       d="m 76.465834,493.70371 143.696696,109.81842 88.3706,67.53733 c 14.70334,-5.54134 35.10015,-8.68578 56.44576,-8.70189 20.59111,0.0238 40.32262,2.959 54.90022,8.16681 l 231.36749,-176.82067 -287.38938,0 z"
       id="path5695"
       sodipodi:nodetypes="cccccccc" />
    <path
       inkscape:connector-curvature="0"
       id="path5695-2"
       d="m 76.316594,491.46024 13.16016,10.04883 548.083986,0 13.16015,-10.04883 -287.20117,0 -287.203126,0 z"
       style="color:#000000;clip-rule:nonzero;display:inline;overflow:visible;visibility:visible;opacity:1;isolation:auto;mix-blend-mode:normal;color-interpolation:sRGB;color-interpolation-filters:linearRGB;solid-color:#000000;solid-opacity:1;fill:#7f868d;fill-opacity:1;fill-rule:nonzero;stroke:none;stroke-width:5;stroke-linecap:butt;stroke-linejoin:miter;stroke-miterlimit:4;stroke-dasharray:none;stroke-dashoffset:0;stroke-opacity:0.99033813;color-rendering:auto;image-rendering:auto;shape-rendering:auto;text-rendering:auto;enable-background:accumulate" />
    <path
       inkscape:connector-curvature="0"
       id="path5695-2-2"
       d="m 54.591346,482.81322 -12.645422,11.16073 43.03899,-0.21704 14.71227,-11.17114 -22.55284,0.11373 -22.552998,0.11372 z"
       style="color:#000000;clip-rule:nonzero;display:inline;overflow:visible;visibility:visible;opacity:1;isolation:auto;mix-blend-mode:normal;color-interpolation:sRGB;color-interpolation-filters:linearRGB;solid-color:#000000;solid-opacity:1;fill:#7f868d;fill-opacity:1;fill-rule:nonzero;stroke:none;stroke-width:5;stroke-linecap:butt;stroke-linejoin:miter;stroke-miterlimit:4;stroke-dasharray:none;stroke-dashoffset:0;stroke-opacity:0.99033813;color-rendering:auto;image-rendering:auto;shape-rendering:auto;text-rendering:auto;enable-background:accumulate" />
    <path
       inkscape:connector-curvature="0"
       id="path5695-2-2-9"
       d="m 673.21043,482.32667 12.64542,11.16073 -43.03899,-0.21704 -14.71227,-11.17114 22.55284,0.11373 22.553,0.11372 z"
       style="color:#000000;clip-rule:nonzero;display:inline;overflow:visible;visibility:visible;opacity:1;isolation:auto;mix-blend-mode:normal;color-interpolation:sRGB;color-interpolation-filters:linearRGB;solid-color:#000000;solid-opacity:1;fill:#7f868d;fill-opacity:1;fill-rule:nonzero;stroke:none;stroke-width:5;stroke-linecap:butt;stroke-linejoin:miter;stroke-miterlimit:4;stroke-dasharray:none;stroke-dashoffset:0;stroke-opacity:0.99033813;color-rendering:auto;image-rendering:auto;shape-rendering:auto;text-rendering:auto;enable-background:accumulate" />
    <rect
       y="490.62167"
       x="45.661564"
       height="3.0710678"
       width="637.15338"
       id="rect5747"
       style="color:#000000;clip-rule:nonzero;display:inline;overflow:visible;visibility:visible;opacity:0.594;isolation:auto;mix-blend-mode:normal;color-interpolation:sRGB;color-interpolation-filters:linearRGB;solid-color:#000000;solid-opacity:1;fill:#999999;fill-opacity:1;fill-rule:nonzero;stroke:none;stroke-width:5;stroke-linecap:butt;stroke-linejoin:miter;stroke-miterlimit:4;stroke-dasharray:none;stroke-dashoffset:0;stroke-opacity:1;color-rendering:auto;image-rendering:auto;shape-rendering:auto;text-rendering:auto;enable-background:accumulate" />
    <rect
       y="808.26123"
       x="28.488386"
       height="5.6568542"
       width="671.54565"
       id="rect5749"
       style="color:#000000;clip-rule:nonzero;display:inline;overflow:visible;visibility:visible;opacity:1;isolation:auto;mix-blend-mode:normal;color-interpolation:sRGB;color-interpolation-filters:linearRGB;solid-color:#000000;solid-opacity:1;fill:#000000;fill-opacity:1;fill-rule:nonzero;stroke:none;stroke-width:5;stroke-linecap:butt;stroke-linejoin:miter;stroke-miterlimit:4;stroke-dasharray:none;stroke-dashoffset:0;stroke-opacity:1;color-rendering:auto;image-rendering:auto;shape-rendering:auto;text-rendering:auto;enable-background:accumulate" />
  </g>
</svg>
